<?xml version="1.0" standalone="no"?>
<!DOCTYPE svg PUBLIC "-//W3C//DTD SVG 20010904//EN"
 "http://www.w3.org/TR/2001/REC-SVG-20010904/DTD/svg10.dtd">
<svg version="1.0" xmlns="http://www.w3.org/2000/svg"
 width="980.000000pt" height="778.000000pt" viewBox="0 0 980.000000 778.000000"
 preserveAspectRatio="xMidYMid meet">

<g transform="translate(0.000000,778.000000) scale(0.100000,-0.100000)"
fill="#000000" stroke="none">
<path d="M3920 7759 c-634 -51 -1218 -215 -1758 -495 -390 -202 -703 -428
-1015 -734 -458 -448 -774 -945 -962 -1515 -84 -252 -132 -469 -167 -755 -16
-133 -16 -600 0 -735 69 -571 252 -1093 543 -1550 l38 -60 -204 -900 c-112
-495 -202 -901 -200 -904 3 -2 403 110 889 249 l885 254 198 -101 c528 -270
1043 -420 1663 -485 189 -20 727 -16 915 6 541 63 1015 193 1443 396 l122 59
0 265 0 265 -72 -41 c-424 -241 -997 -419 -1543 -480 -158 -17 -700 -17 -860
0 -601 65 -1158 247 -1658 541 l-137 81 -608 -174 c-334 -95 -608 -172 -609
-171 -2 1 60 278 137 616 l140 615 -84 127 c-279 421 -444 844 -516 1322 -30
201 -38 539 -16 745 77 725 393 1387 920 1928 661 678 1548 1084 2540 1163
190 15 624 6 806 -16 1487 -182 2708 -1113 3142 -2395 126 -374 180 -768 158
-1155 -6 -93 -13 -182 -16 -198 l-6 -27 235 0 c235 0 235 0 242 23 3 12 9 144
12 292 4 209 1 304 -11 422 -81 759 -369 1425 -879 2033 -108 128 -356 372
-497 488 -378 312 -807 558 -1270 730 -340 126 -721 215 -1101 257 -172 19
-672 28 -839 14z"/>
<path d="M2787 4319 c-221 -52 -377 -287 -339 -510 42 -246 265 -411 512 -378
242 33 422 274 382 513 -30 185 -168 335 -343 375 -53 13 -160 12 -212 0z"/>
<path d="M4338 4311 c-188 -60 -318 -237 -318 -430 1 -280 241 -489 518 -450
320 45 490 415 317 689 -107 169 -329 251 -517 191z"/>
<path d="M5918 4311 c-127 -41 -220 -122 -277 -241 -35 -73 -36 -78 -36 -195
0 -116 1 -122 34 -190 169 -345 654 -344 818 1 32 67 38 90 41 164 5 93 -11
167 -50 244 -27 53 -112 142 -166 173 -106 62 -252 80 -364 44z"/>
<path d="M8010 2470 l0 -670 -670 0 -670 0 0 -225 0 -225 670 0 670 0 0 -670
0 -670 225 0 225 0 0 670 0 670 670 0 670 0 0 225 0 225 -670 0 -670 0 0 670
0 670 -225 0 -225 0 0 -670z"/>
</g>
</svg>
