<?xml version="1.0" encoding="UTF-8"?>
<svg width="20px" height="20px" viewBox="0 0 20 20" version="1.1" xmlns="http://www.w3.org/2000/svg" xmlns:xlink="http://www.w3.org/1999/xlink">
    <title>bounds</title>
    <g id="Page-1" stroke="none" stroke-width="1" fill="none" fill-rule="evenodd">
        <g id="list-scroll--v-light" transform="translate(-64.000000, -384.000000)">
            <g id="list" transform="translate(16.000000, 80.000000)">
                <g id="ticket-cancelled" transform="translate(0.000000, 264.000000)">
                    <g id="icon" transform="translate(48.000000, 40.000000)">
                        <rect id="bounds" x="0" y="0" width="20" height="20"></rect>
                        <path d="M18,9 C17.859375,9 17.7291667,9.02604167 17.609375,9.078125 C17.4895833,9.13020833 17.3841146,9.20182292 17.2929688,9.29296875 C17.2018229,9.38411458 17.1302083,9.48958333 17.078125,9.609375 C17.0260417,9.72916667 17,9.859375 17,10 C17,10.140625 17.0260417,10.2708333 17.078125,10.390625 C17.1302083,10.5104167 17.2018229,10.6158854 17.2929688,10.7070312 C17.3841146,10.7981771 17.4895833,10.8697917 17.609375,10.921875 C17.7291667,10.9739583 17.859375,11 18,11 L18,15 L2,15 L2,11 C2.140625,11 2.27083333,10.9739583 2.390625,10.921875 C2.51041667,10.8697917 2.61588542,10.7981771 2.70703125,10.7070312 C2.79817708,10.6158854 2.86979167,10.5104167 2.921875,10.390625 C2.97395833,10.2708333 3,10.140625 3,10 C3,9.859375 2.97395833,9.72916667 2.921875,9.609375 C2.86979167,9.48958333 2.79817708,9.38411458 2.70703125,9.29296875 C2.61588542,9.20182292 2.51041667,9.13020833 2.390625,9.078125 C2.27083333,9.02604167 2.140625,9 2,9 L2,5 L18,5 L18,9 Z M17,6 L3,6 L3,8.265625 C3.3125,8.44791667 3.55729167,8.69270833 3.734375,9 C3.91145833,9.30729167 4,9.640625 4,10 C4,10.359375 3.91145833,10.6927083 3.734375,11 C3.55729167,11.3072917 3.3125,11.5520833 3,11.734375 L3,14 L17,14 L17,11.734375 C16.6875,11.5520833 16.4427083,11.3072917 16.265625,11 C16.0885417,10.6927083 16,10.359375 16,10 C16,9.640625 16.0885417,9.30729167 16.265625,9 C16.4427083,8.69270833 16.6875,8.44791667 17,8.265625 L17,6 Z" id="shape" fill-opacity="0.6" fill="#000000" fill-rule="nonzero"></path>
                    </g>
                </g>
            </g>
        </g>
    </g>
</svg>