<?xml version="1.0" encoding="UTF-8"?>
<svg width="20px" height="20px" viewBox="0 0 20 20" version="1.1" xmlns="http://www.w3.org/2000/svg" xmlns:xlink="http://www.w3.org/1999/xlink">
    <title>bounds</title>
    <g id="Page-1" stroke="none" stroke-width="1" fill="none" fill-rule="evenodd">
        <g id="details-OTP--v-light" transform="translate(-36.000000, -512.000000)">
            <g id="OTP" transform="translate(16.000000, 492.000000)">
                <g id="highlight" transform="translate(4.000000, 4.000000)">
                    <g id="icon" transform="translate(16.000000, 16.000000)">
                        <rect id="bounds" x="0" y="0" width="20" height="20"></rect>
                        <path d="M18,14.2890625 L18,18 L14,18 L14,16 L12,16 L12,14 L10,14 L10,12.3828125 C9.61458333,12.5859375 9.2109375,12.7395833 8.7890625,12.84375 C8.3671875,12.9479167 7.9375,13 7.5,13 C6.99479167,13 6.5078125,12.9348958 6.0390625,12.8046875 C5.5703125,12.6744792 5.1328125,12.4895833 4.7265625,12.25 C4.3203125,12.0104167 3.94921875,11.7226562 3.61328125,11.3867188 C3.27734375,11.0507812 2.98958333,10.6796875 2.75,10.2734375 C2.51041667,9.8671875 2.32552083,9.4296875 2.1953125,8.9609375 C2.06510417,8.4921875 2,8.00520833 2,7.5 C2,6.99479167 2.06510417,6.5078125 2.1953125,6.0390625 C2.32552083,5.5703125 2.51041667,5.1328125 2.75,4.7265625 C2.98958333,4.3203125 3.27734375,3.94921875 3.61328125,3.61328125 C3.94921875,3.27734375 4.3203125,2.98958333 4.7265625,2.75 C5.1328125,2.51041667 5.5703125,2.32552083 6.0390625,2.1953125 C6.5078125,2.06510417 6.99479167,2 7.5,2 C8.00520833,2 8.4921875,2.06510417 8.9609375,2.1953125 C9.4296875,2.32552083 9.8671875,2.51041667 10.2734375,2.75 C10.6796875,2.98958333 11.0507812,3.27734375 11.3867188,3.61328125 C11.7226562,3.94921875 12.0104167,4.3203125 12.25,4.7265625 C12.4895833,5.1328125 12.6744792,5.5703125 12.8046875,6.0390625 C12.9348958,6.5078125 13,6.99479167 13,7.5 C13,7.765625 12.9791667,8.02864583 12.9375,8.2890625 C12.8958333,8.54947917 12.8359375,8.8046875 12.7578125,9.0546875 L18,14.2890625 Z M17,14.7109375 L11.609375,9.3203125 C11.7239583,9.0234375 11.8177083,8.72526042 11.890625,8.42578125 C11.9635417,8.12630208 12,7.81770833 12,7.5 C12,6.88020833 11.8815104,6.296875 11.6445312,5.75 C11.4075521,5.203125 11.0859375,4.7265625 10.6796875,4.3203125 C10.2734375,3.9140625 9.796875,3.59244792 9.25,3.35546875 C8.703125,3.11848958 8.11979167,3 7.5,3 C6.88020833,3 6.296875,3.11848958 5.75,3.35546875 C5.203125,3.59244792 4.7265625,3.9140625 4.3203125,4.3203125 C3.9140625,4.7265625 3.59244792,5.203125 3.35546875,5.75 C3.11848958,6.296875 3,6.88020833 3,7.5 C3,8.11979167 3.11848958,8.703125 3.35546875,9.25 C3.59244792,9.796875 3.9140625,10.2734375 4.3203125,10.6796875 C4.7265625,11.0859375 5.203125,11.4075521 5.75,11.6445312 C6.296875,11.8815104 6.88020833,12 7.5,12 C8.00520833,12 8.50130208,11.9140625 8.98828125,11.7421875 C9.47526042,11.5703125 9.9140625,11.3229167 10.3046875,11 L11,11 L11,13 L13,13 L13,15 L15,15 L15,17 L17,17 L17,14.7109375 Z M6,5 C6.140625,5 6.27083333,5.02604167 6.390625,5.078125 C6.51041667,5.13020833 6.61588542,5.20182292 6.70703125,5.29296875 C6.79817708,5.38411458 6.86979167,5.48958333 6.921875,5.609375 C6.97395833,5.72916667 7,5.859375 7,6 C7,6.140625 6.97395833,6.27083333 6.921875,6.390625 C6.86979167,6.51041667 6.79817708,6.61588542 6.70703125,6.70703125 C6.61588542,6.79817708 6.51041667,6.86979167 6.390625,6.921875 C6.27083333,6.97395833 6.140625,7 6,7 C5.859375,7 5.72916667,6.97395833 5.609375,6.921875 C5.48958333,6.86979167 5.38411458,6.79817708 5.29296875,6.70703125 C5.20182292,6.61588542 5.13020833,6.51041667 5.078125,6.390625 C5.02604167,6.27083333 5,6.140625 5,6 C5,5.859375 5.02604167,5.72916667 5.078125,5.609375 C5.13020833,5.48958333 5.20182292,5.38411458 5.29296875,5.29296875 C5.38411458,5.20182292 5.48958333,5.13020833 5.609375,5.078125 C5.72916667,5.02604167 5.859375,5 6,5 Z" id="shape" fill-opacity="0.6" fill="#000000" fill-rule="nonzero"></path>
                    </g>
                </g>
            </g>
        </g>
    </g>
</svg>