<?xml version="1.0" encoding="UTF-8"?>
<svg width="20px" height="20px" viewBox="0 0 20 20" version="1.1" xmlns="http://www.w3.org/2000/svg" xmlns:xlink="http://www.w3.org/1999/xlink">
    <title>bounds</title>
    <g id="Page-1" stroke="none" stroke-width="1" fill="none" fill-rule="evenodd">
        <g id="list-scroll--v-light" transform="translate(-64.000000, -296.000000)">
            <g id="list" transform="translate(16.000000, 80.000000)">
                <g id="reservation-confirmed" transform="translate(0.000000, 176.000000)">
                    <g id="icon" transform="translate(48.000000, 40.000000)">
                        <rect id="bounds" x="0" y="0" width="20" height="20"></rect>
                        <path d="M17,2 L17,18 L4,18 L4,16.015625 L3,16.015625 L3,15.015625 L4,15.015625 L4,13.0078125 L3,13.0078125 L3,12.0078125 L4,12.0078125 L4,8.0078125 L3,8.0078125 L3,7.0078125 L4,7.0078125 L4,5.0078125 L3,5.0078125 L3,4.0078125 L4,4.0078125 L4,2 L17,2 Z M16,3 L5,3 L5,17 L16,17 L16,3 Z M15,6 L10,6 L10,5 L15,5 L15,6 Z M15,8 L10,8 L10,7 L15,7 L15,8 Z M7.5,14.96875 C7.296875,14.96875 7.10546875,14.9309896 6.92578125,14.8554688 C6.74609375,14.7799479 6.58984375,14.6757812 6.45703125,14.5429688 C6.32421875,14.4101562 6.22005208,14.2539062 6.14453125,14.0742188 C6.06901042,13.8945312 6.03125,13.703125 6.03125,13.5 C6.03125,13.296875 6.06901042,13.1067708 6.14453125,12.9296875 C6.22005208,12.7526042 6.32421875,12.5976562 6.45703125,12.4648438 C6.58984375,12.3320312 6.74609375,12.2265625 6.92578125,12.1484375 C7.10546875,12.0703125 7.296875,12.03125 7.5,12.03125 C7.703125,12.03125 7.89322917,12.0703125 8.0703125,12.1484375 C8.24739583,12.2265625 8.40234375,12.3320312 8.53515625,12.4648438 C8.66796875,12.5976562 8.7734375,12.7526042 8.8515625,12.9296875 C8.9296875,13.1067708 8.96875,13.296875 8.96875,13.5 C8.96875,13.703125 8.9296875,13.8945312 8.8515625,14.0742188 C8.7734375,14.2539062 8.66796875,14.4101562 8.53515625,14.5429688 C8.40234375,14.6757812 8.24739583,14.7799479 8.0703125,14.8554688 C7.89322917,14.9309896 7.703125,14.96875 7.5,14.96875 Z M7.5,12.96875 C7.34895833,12.96875 7.22265625,13.0195312 7.12109375,13.1210938 C7.01953125,13.2226562 6.96875,13.3489583 6.96875,13.5 C6.96875,13.6510417 7.01953125,13.7773438 7.12109375,13.8789062 C7.22265625,13.9804688 7.34895833,14.03125 7.5,14.03125 C7.65104167,14.03125 7.77734375,13.9804688 7.87890625,13.8789062 C7.98046875,13.7773438 8.03125,13.6510417 8.03125,13.5 C8.03125,13.3489583 7.98046875,13.2226562 7.87890625,13.1210938 C7.77734375,13.0195312 7.65104167,12.96875 7.5,12.96875 Z M7.5,7.96875 C7.296875,7.96875 7.10546875,7.93098958 6.92578125,7.85546875 C6.74609375,7.77994792 6.58984375,7.67578125 6.45703125,7.54296875 C6.32421875,7.41015625 6.22005208,7.25390625 6.14453125,7.07421875 C6.06901042,6.89453125 6.03125,6.703125 6.03125,6.5 C6.03125,6.296875 6.06901042,6.10677083 6.14453125,5.9296875 C6.22005208,5.75260417 6.32421875,5.59765625 6.45703125,5.46484375 C6.58984375,5.33203125 6.74609375,5.2265625 6.92578125,5.1484375 C7.10546875,5.0703125 7.296875,5.03125 7.5,5.03125 C7.703125,5.03125 7.89322917,5.0703125 8.0703125,5.1484375 C8.24739583,5.2265625 8.40234375,5.33203125 8.53515625,5.46484375 C8.66796875,5.59765625 8.7734375,5.75260417 8.8515625,5.9296875 C8.9296875,6.10677083 8.96875,6.296875 8.96875,6.5 C8.96875,6.703125 8.9296875,6.89453125 8.8515625,7.07421875 C8.7734375,7.25390625 8.66796875,7.41015625 8.53515625,7.54296875 C8.40234375,7.67578125 8.24739583,7.77994792 8.0703125,7.85546875 C7.89322917,7.93098958 7.703125,7.96875 7.5,7.96875 Z M7.5,5.96875 C7.34895833,5.96875 7.22265625,6.01953125 7.12109375,6.12109375 C7.01953125,6.22265625 6.96875,6.34895833 6.96875,6.5 C6.96875,6.65104167 7.01953125,6.77734375 7.12109375,6.87890625 C7.22265625,6.98046875 7.34895833,7.03125 7.5,7.03125 C7.65104167,7.03125 7.77734375,6.98046875 7.87890625,6.87890625 C7.98046875,6.77734375 8.03125,6.65104167 8.03125,6.5 C8.03125,6.34895833 7.98046875,6.22265625 7.87890625,6.12109375 C7.77734375,6.01953125 7.65104167,5.96875 7.5,5.96875 Z M15,13 L10,13 L10,12 L15,12 L15,13 Z M15,15 L10,15 L10,14 L15,14 L15,15 Z" id="shape" fill-opacity="0.6" fill="#000000" fill-rule="nonzero"></path>
                    </g>
                </g>
            </g>
        </g>
    </g>
</svg>