<?xml version="1.0" encoding="UTF-8"?>
<svg width="20px" height="20px" viewBox="0 0 20 20" version="1.1" xmlns="http://www.w3.org/2000/svg" xmlns:xlink="http://www.w3.org/1999/xlink">
    <title>bounds</title>
    <g id="Page-1" stroke="none" stroke-width="1" fill="none" fill-rule="evenodd">
        <g id="list-scroll--v-light" transform="translate(-64.000000, -472.000000)">
            <g id="list" transform="translate(16.000000, 80.000000)">
                <g id="service-notification" transform="translate(0.000000, 352.000000)">
                    <g id="icon" transform="translate(48.000000, 40.000000)">
                        <rect id="bounds" x="0" y="0" width="20" height="20"></rect>
                        <path d="M10,2 C10.5520833,2 11.0833333,2.07161458 11.59375,2.21484375 C12.1041667,2.35807292 12.5820312,2.55989583 13.0273438,2.8203125 C13.4726562,3.08072917 13.8776042,3.39322917 14.2421875,3.7578125 C14.6067708,4.12239583 14.9192708,4.52734375 15.1796875,4.97265625 C15.4401042,5.41796875 15.6419271,5.89583333 15.7851562,6.40625 C15.9283854,6.91666667 16,7.44791667 16,8 L16,11.5 C16,11.7083333 15.9609375,11.9036458 15.8828125,12.0859375 C15.8046875,12.2682292 15.6979167,12.4270833 15.5625,12.5625 C15.4270833,12.6979167 15.2682292,12.8046875 15.0859375,12.8828125 C14.9036458,12.9609375 14.7083333,13 14.5,13 L13,13 L13,8 L14.5,8 C14.5885417,8 14.6744792,8.00911458 14.7578125,8.02734375 C14.8411458,8.04557292 14.921875,8.06770833 15,8.09375 C15,7.390625 14.8723958,6.73046875 14.6171875,6.11328125 C14.3619792,5.49609375 14.0117188,4.95703125 13.5664062,4.49609375 C13.1210938,4.03515625 12.5924479,3.67057292 11.9804688,3.40234375 C11.3684896,3.13411458 10.7083333,3 10,3 C9.54166667,3 9.09895833,3.05989583 8.671875,3.1796875 C8.24479167,3.29947917 7.84635417,3.46744792 7.4765625,3.68359375 C7.10677083,3.89973958 6.76953125,4.16015625 6.46484375,4.46484375 C6.16015625,4.76953125 5.89973958,5.10677083 5.68359375,5.4765625 C5.46744792,5.84635417 5.29947917,6.24479167 5.1796875,6.671875 C5.05989583,7.09895833 5,7.54166667 5,8 L5,8.09375 C5.078125,8.06770833 5.15885417,8.04557292 5.2421875,8.02734375 C5.32552083,8.00911458 5.41145833,8 5.5,8 L7,8 L7,13 L6,13 L6,14 C6,14.2760417 6.05208333,14.5351562 6.15625,14.7773438 C6.26041667,15.0195312 6.40364583,15.2317708 6.5859375,15.4140625 C6.76822917,15.5963542 6.98046875,15.7395833 7.22265625,15.84375 C7.46484375,15.9479167 7.72395833,16 8,16 C8,15.859375 8.02604167,15.7291667 8.078125,15.609375 C8.13020833,15.4895833 8.20182292,15.3841146 8.29296875,15.2929688 C8.38411458,15.2018229 8.48958333,15.1302083 8.609375,15.078125 C8.72916667,15.0260417 8.859375,15 9,15 L11,15 C11.140625,15 11.2708333,15.0260417 11.390625,15.078125 C11.5104167,15.1302083 11.6158854,15.2018229 11.7070312,15.2929688 C11.7981771,15.3841146 11.8697917,15.4895833 11.921875,15.609375 C11.9739583,15.7291667 12,15.859375 12,16 L12,17 C12,17.140625 11.9739583,17.2708333 11.921875,17.390625 C11.8697917,17.5104167 11.7981771,17.6158854 11.7070312,17.7070312 C11.6158854,17.7981771 11.5104167,17.8697917 11.390625,17.921875 C11.2708333,17.9739583 11.140625,18 11,18 L9,18 C8.859375,18 8.72916667,17.9739583 8.609375,17.921875 C8.48958333,17.8697917 8.38411458,17.7981771 8.29296875,17.7070312 C8.20182292,17.6158854 8.13020833,17.5104167 8.078125,17.390625 C8.02604167,17.2708333 8,17.140625 8,17 C7.58333333,17 7.19401042,16.921875 6.83203125,16.765625 C6.47005208,16.609375 6.15234375,16.3945312 5.87890625,16.1210938 C5.60546875,15.8476562 5.390625,15.5299479 5.234375,15.1679688 C5.078125,14.8059896 5,14.4166667 5,14 L5,12.90625 C4.84895833,12.8541667 4.71223958,12.78125 4.58984375,12.6875 C4.46744792,12.59375 4.36328125,12.4856771 4.27734375,12.3632812 C4.19140625,12.2408854 4.12369792,12.1054688 4.07421875,11.9570312 C4.02473958,11.8085938 4,11.65625 4,11.5 L4,8 C4,7.44791667 4.07161458,6.91666667 4.21484375,6.40625 C4.35807292,5.89583333 4.55989583,5.41796875 4.8203125,4.97265625 C5.08072917,4.52734375 5.39322917,4.12239583 5.7578125,3.7578125 C6.12239583,3.39322917 6.52734375,3.08072917 6.97265625,2.8203125 C7.41796875,2.55989583 7.89583333,2.35807292 8.40625,2.21484375 C8.91666667,2.07161458 9.44791667,2 10,2 Z M9,17 L11,17 L11,16 L9,16 L9,17 Z M5.5,9 C5.36458333,9 5.24739583,9.04947917 5.1484375,9.1484375 C5.04947917,9.24739583 5,9.36458333 5,9.5 L5,11.5 C5,11.6354167 5.04947917,11.7526042 5.1484375,11.8515625 C5.24739583,11.9505208 5.36458333,12 5.5,12 L6,12 L6,9 L5.5,9 Z M15,9.5 C15,9.36458333 14.9505208,9.24739583 14.8515625,9.1484375 C14.7526042,9.04947917 14.6354167,9 14.5,9 L14,9 L14,12 L14.5,12 C14.6354167,12 14.7526042,11.9505208 14.8515625,11.8515625 C14.9505208,11.7526042 15,11.6354167 15,11.5 L15,9.5 Z" id="shape" fill-opacity="0.6" fill="#000000" fill-rule="nonzero"></path>
                    </g>
                </g>
            </g>
        </g>
    </g>
</svg>