<?xml version="1.0" encoding="UTF-8"?>
<svg width="20px" height="20px" viewBox="0 0 20 20" version="1.1" xmlns="http://www.w3.org/2000/svg" xmlns:xlink="http://www.w3.org/1999/xlink">
    <title>bounds</title>
    <g id="Page-1" stroke="none" stroke-width="1" fill="none" fill-rule="evenodd">
        <g id="details--v-light" transform="translate(-36.000000, -152.000000)">
            <g id="debit" transform="translate(16.000000, 132.000000)">
                <g id="highlight" transform="translate(4.000000, 4.000000)">
                    <g id="icon" transform="translate(16.000000, 16.000000)">
                        <rect id="bounds" x="0" y="0" width="20" height="20"></rect>
                        <path d="M16.5,7.875 L16.5,13.875 C16.5,13.8802083 16.5234375,13.9518229 16.5703125,14.0898438 C16.6171875,14.2278646 16.6757812,14.4023438 16.7460938,14.6132812 C16.8164062,14.8242188 16.8932292,15.0546875 16.9765625,15.3046875 C17.0598958,15.5546875 17.1380208,15.7903646 17.2109375,16.0117188 C17.2838542,16.2330729 17.3476562,16.4231771 17.4023438,16.5820312 C17.4570312,16.7408854 17.4895833,16.8385417 17.5,16.875 L2.5,16.875 C2.51041667,16.8385417 2.54296875,16.7408854 2.59765625,16.5820312 C2.65234375,16.4231771 2.71614583,16.2330729 2.7890625,16.0117188 C2.86197917,15.7903646 2.94010417,15.5546875 3.0234375,15.3046875 C3.10677083,15.0546875 3.18359375,14.8242188 3.25390625,14.6132812 C3.32421875,14.4023438 3.3828125,14.2278646 3.4296875,14.0898438 C3.4765625,13.9518229 3.5,13.8802083 3.5,13.875 L3.5,7.875 L2.5,7.875 L2.5,6.875 L10,3.125 L17.5,6.875 L17.5,7.875 L16.5,7.875 Z M4.734375,6.875 L15.265625,6.875 L10,4.2421875 L4.734375,6.875 Z M14.5,7.875 L14.5,13.875 L15.5,13.875 L15.5,7.875 L14.5,7.875 Z M12.5,7.875 L12.5,13.875 L13.5,13.875 L13.5,7.875 L12.5,7.875 Z M10.5,7.875 L10.5,13.875 L11.5,13.875 L11.5,7.875 L10.5,7.875 Z M8.5,7.875 L8.5,13.875 L9.5,13.875 L9.5,7.875 L8.5,7.875 Z M6.5,7.875 L6.5,13.875 L7.5,13.875 L7.5,7.875 L6.5,7.875 Z M4.5,13.875 L5.5,13.875 L5.5,7.875 L4.5,7.875 L4.5,13.875 Z M16.109375,15.875 L15.78125,14.875 L4.21875,14.875 L3.890625,15.875 L16.109375,15.875 Z" id="shape" fill-opacity="0.6" fill="#000000" fill-rule="nonzero"></path>
                    </g>
                </g>
            </g>
        </g>
    </g>
</svg>