<?xml version="1.0" encoding="UTF-8"?>
<svg width="20px" height="20px" viewBox="0 0 20 20" version="1.1" xmlns="http://www.w3.org/2000/svg" xmlns:xlink="http://www.w3.org/1999/xlink">
    <title>bounds</title>
    <g id="Page-1" stroke="none" stroke-width="1" fill="none" fill-rule="evenodd">
        <g id="list-scroll--v-light" transform="translate(-64.000000, -648.000000)">
            <g id="list" transform="translate(16.000000, 80.000000)">
                <g id="payment-reminder" transform="translate(0.000000, 528.000000)">
                    <g id="icon" transform="translate(48.000000, 40.000000)">
                        <rect id="bounds" x="0" y="0" width="20" height="20"></rect>
                        <path d="M18,5.5 L18,15.5 L3,15.5 L3,13.5 L2,13.5 L2,4.5 L16,4.5 L16,5.5 L18,5.5 Z M14,5.5 C14,5.640625 14.0260417,5.77083333 14.078125,5.890625 C14.1302083,6.01041667 14.2018229,6.11588542 14.2929688,6.20703125 C14.3841146,6.29817708 14.4895833,6.36979167 14.609375,6.421875 C14.7291667,6.47395833 14.859375,6.5 15,6.5 L15,5.5 L14,5.5 Z M3,6.5 C3.140625,6.5 3.27083333,6.47395833 3.390625,6.421875 C3.51041667,6.36979167 3.61588542,6.29817708 3.70703125,6.20703125 C3.79817708,6.11588542 3.86979167,6.01041667 3.921875,5.890625 C3.97395833,5.77083333 4,5.640625 4,5.5 L3,5.5 L3,6.5 Z M3,10.5 C3.27604167,10.5 3.53515625,10.5520833 3.77734375,10.65625 C4.01953125,10.7604167 4.23177083,10.9036458 4.4140625,11.0859375 C4.59635417,11.2682292 4.73958333,11.4804688 4.84375,11.7226562 C4.94791667,11.9648438 5,12.2239583 5,12.5 L13,12.5 C13,12.2239583 13.0520833,11.9648438 13.15625,11.7226562 C13.2604167,11.4804688 13.4036458,11.2682292 13.5859375,11.0859375 C13.7682292,10.9036458 13.9804688,10.7604167 14.2226562,10.65625 C14.4648438,10.5520833 14.7239583,10.5 15,10.5 L15,7.5 C14.7239583,7.5 14.4648438,7.44791667 14.2226562,7.34375 C13.9804688,7.23958333 13.7682292,7.09635417 13.5859375,6.9140625 C13.4036458,6.73177083 13.2604167,6.51953125 13.15625,6.27734375 C13.0520833,6.03515625 13,5.77604167 13,5.5 L5,5.5 C5,5.77604167 4.94791667,6.03515625 4.84375,6.27734375 C4.73958333,6.51953125 4.59635417,6.73177083 4.4140625,6.9140625 C4.23177083,7.09635417 4.01953125,7.23958333 3.77734375,7.34375 C3.53515625,7.44791667 3.27604167,7.5 3,7.5 L3,10.5 Z M15,11.5 C14.859375,11.5 14.7291667,11.5260417 14.609375,11.578125 C14.4895833,11.6302083 14.3841146,11.7018229 14.2929688,11.7929688 C14.2018229,11.8841146 14.1302083,11.9895833 14.078125,12.109375 C14.0260417,12.2291667 14,12.359375 14,12.5 L15,12.5 L15,11.5 Z M3,12.5 L4,12.5 C4,12.359375 3.97395833,12.2291667 3.921875,12.109375 C3.86979167,11.9895833 3.79817708,11.8841146 3.70703125,11.7929688 C3.61588542,11.7018229 3.51041667,11.6302083 3.390625,11.578125 C3.27083333,11.5260417 3.140625,11.5 3,11.5 L3,12.5 Z M17,6.5 L16,6.5 L16,13.5 L4,13.5 L4,14.5 L17,14.5 L17,6.5 Z M5.5,9.5 C5.36458333,9.5 5.24739583,9.45052083 5.1484375,9.3515625 C5.04947917,9.25260417 5,9.13541667 5,9 C5,8.86458333 5.04947917,8.74739583 5.1484375,8.6484375 C5.24739583,8.54947917 5.36458333,8.5 5.5,8.5 C5.63541667,8.5 5.75260417,8.54947917 5.8515625,8.6484375 C5.95052083,8.74739583 6,8.86458333 6,9 C6,9.13541667 5.95052083,9.25260417 5.8515625,9.3515625 C5.75260417,9.45052083 5.63541667,9.5 5.5,9.5 Z M12.5,9.5 C12.3645833,9.5 12.2473958,9.45052083 12.1484375,9.3515625 C12.0494792,9.25260417 12,9.13541667 12,9 C12,8.86458333 12.0494792,8.74739583 12.1484375,8.6484375 C12.2473958,8.54947917 12.3645833,8.5 12.5,8.5 C12.6354167,8.5 12.7526042,8.54947917 12.8515625,8.6484375 C12.9505208,8.74739583 13,8.86458333 13,9 C13,9.13541667 12.9505208,9.25260417 12.8515625,9.3515625 C12.7526042,9.45052083 12.6354167,9.5 12.5,9.5 Z M9,11.5 C8.72395833,11.5 8.46484375,11.4479167 8.22265625,11.34375 C7.98046875,11.2395833 7.76822917,11.0963542 7.5859375,10.9140625 C7.40364583,10.7317708 7.26041667,10.5195312 7.15625,10.2773438 C7.05208333,10.0351562 7,9.77604167 7,9.5 L7,8.5 C7,8.22395833 7.05208333,7.96484375 7.15625,7.72265625 C7.26041667,7.48046875 7.40364583,7.26822917 7.5859375,7.0859375 C7.76822917,6.90364583 7.98046875,6.76041667 8.22265625,6.65625 C8.46484375,6.55208333 8.72395833,6.5 9,6.5 C9.27604167,6.5 9.53515625,6.55208333 9.77734375,6.65625 C10.0195312,6.76041667 10.2317708,6.90364583 10.4140625,7.0859375 C10.5963542,7.26822917 10.7395833,7.48046875 10.84375,7.72265625 C10.9479167,7.96484375 11,8.22395833 11,8.5 L11,9.5 C11,9.77604167 10.9479167,10.0351562 10.84375,10.2773438 C10.7395833,10.5195312 10.5963542,10.7317708 10.4140625,10.9140625 C10.2317708,11.0963542 10.0195312,11.2395833 9.77734375,11.34375 C9.53515625,11.4479167 9.27604167,11.5 9,11.5 Z M8,9.5 C8,9.640625 8.02604167,9.77083333 8.078125,9.890625 C8.13020833,10.0104167 8.20182292,10.1158854 8.29296875,10.2070312 C8.38411458,10.2981771 8.48958333,10.3697917 8.609375,10.421875 C8.72916667,10.4739583 8.859375,10.5 9,10.5 C9.140625,10.5 9.27083333,10.4739583 9.390625,10.421875 C9.51041667,10.3697917 9.61588542,10.2981771 9.70703125,10.2070312 C9.79817708,10.1158854 9.86979167,10.0104167 9.921875,9.890625 C9.97395833,9.77083333 10,9.640625 10,9.5 L10,8.5 C10,8.359375 9.97395833,8.22916667 9.921875,8.109375 C9.86979167,7.98958333 9.79817708,7.88411458 9.70703125,7.79296875 C9.61588542,7.70182292 9.51041667,7.63020833 9.390625,7.578125 C9.27083333,7.52604167 9.140625,7.5 9,7.5 C8.859375,7.5 8.72916667,7.52604167 8.609375,7.578125 C8.48958333,7.63020833 8.38411458,7.70182292 8.29296875,7.79296875 C8.20182292,7.88411458 8.13020833,7.98958333 8.078125,8.109375 C8.02604167,8.22916667 8,8.359375 8,8.5 L8,9.5 Z" id="shape" fill="#000000" fill-rule="nonzero"></path>
                    </g>
                </g>
            </g>
        </g>
    </g>
</svg>