<?xml version="1.0" encoding="UTF-8"?>
<svg width="20px" height="20px" viewBox="0 0 20 20" version="1.1" xmlns="http://www.w3.org/2000/svg" xmlns:xlink="http://www.w3.org/1999/xlink">
    <title>bounds</title>
    <g id="Page-1" stroke="none" stroke-width="1" fill="none" fill-rule="evenodd">
        <g id="list-scroll--v-light" transform="translate(-64.000000, -560.000000)">
            <g id="list" transform="translate(16.000000, 80.000000)">
                <g id="shipment-pickup-completed" transform="translate(0.000000, 440.000000)">
                    <g id="icon" transform="translate(48.000000, 40.000000)">
                        <rect id="bounds" x="0" y="0" width="20" height="20"></rect>
                        <path d="M18,14 L13.90625,14 C13.8541667,14.1510417 13.78125,14.2877604 13.6875,14.4101562 C13.59375,14.5325521 13.4856771,14.6367188 13.3632812,14.7226562 C13.2408854,14.8085938 13.1054688,14.8763021 12.9570312,14.9257812 C12.8085938,14.9752604 12.65625,15 12.5,15 C12.34375,15 12.1914062,14.9752604 12.0429688,14.9257812 C11.8945312,14.8763021 11.7591146,14.8085938 11.6367188,14.7226562 C11.5143229,14.6367188 11.40625,14.5325521 11.3125,14.4101562 C11.21875,14.2877604 11.1458333,14.1510417 11.09375,14 L6.90625,14 C6.85416667,14.1510417 6.78125,14.2877604 6.6875,14.4101562 C6.59375,14.5325521 6.48567708,14.6367188 6.36328125,14.7226562 C6.24088542,14.8085938 6.10546875,14.8763021 5.95703125,14.9257812 C5.80859375,14.9752604 5.65625,15 5.5,15 C5.34375,15 5.19140625,14.9752604 5.04296875,14.9257812 C4.89453125,14.8763021 4.75911458,14.8085938 4.63671875,14.7226562 C4.51432292,14.6367188 4.40625,14.5325521 4.3125,14.4101562 C4.21875,14.2877604 4.14583333,14.1510417 4.09375,14 L2,14 L2,5 L13,5 L13,6 L15.8125,6 L18,10.3828125 L18,14 Z M3,13 L4.09375,13 C4.14583333,12.8541667 4.21875,12.71875 4.3125,12.59375 C4.40625,12.46875 4.51432292,12.3632812 4.63671875,12.2773438 C4.75911458,12.1914062 4.89453125,12.1236979 5.04296875,12.0742188 C5.19140625,12.0247396 5.34375,12 5.5,12 C5.65625,12 5.80859375,12.0247396 5.95703125,12.0742188 C6.10546875,12.1236979 6.24088542,12.1914062 6.36328125,12.2773438 C6.48567708,12.3632812 6.59375,12.46875 6.6875,12.59375 C6.78125,12.71875 6.85416667,12.8541667 6.90625,13 L11.09375,13 C11.1666667,12.7864583 11.2825521,12.6002604 11.4414062,12.4414062 C11.6002604,12.2825521 11.7864583,12.1666667 12,12.09375 L12,6 L3,6 L3,13 Z M5.5,14 C5.63541667,14 5.75260417,13.9505208 5.8515625,13.8515625 C5.95052083,13.7526042 6,13.6354167 6,13.5 C6,13.3645833 5.95052083,13.2473958 5.8515625,13.1484375 C5.75260417,13.0494792 5.63541667,13 5.5,13 C5.36458333,13 5.24739583,13.0494792 5.1484375,13.1484375 C5.04947917,13.2473958 5,13.3645833 5,13.5 C5,13.6354167 5.04947917,13.7526042 5.1484375,13.8515625 C5.24739583,13.9505208 5.36458333,14 5.5,14 Z M12.5,14 C12.6354167,14 12.7526042,13.9505208 12.8515625,13.8515625 C12.9505208,13.7526042 13,13.6354167 13,13.5 C13,13.3645833 12.9505208,13.2473958 12.8515625,13.1484375 C12.7526042,13.0494792 12.6354167,13 12.5,13 C12.3645833,13 12.2473958,13.0494792 12.1484375,13.1484375 C12.0494792,13.2473958 12,13.3645833 12,13.5 C12,13.6354167 12.0494792,13.7526042 12.1484375,13.8515625 C12.2473958,13.9505208 12.3645833,14 12.5,14 Z M17,10.6171875 L15.1875,7 L13,7 L13,12.09375 C13.2135417,12.1666667 13.3997396,12.2825521 13.5585938,12.4414062 C13.7174479,12.6002604 13.8333333,12.7864583 13.90625,13 L17,13 L17,10.6171875 Z" id="shape" fill-opacity="0.6" fill="#000000" fill-rule="nonzero"></path>
                    </g>
                </g>
            </g>
        </g>
    </g>
</svg>