<?xml version="1.0" encoding="UTF-8"?>
<svg width="24px" height="24px" viewBox="0 0 24 24" version="1.1" xmlns="http://www.w3.org/2000/svg" xmlns:xlink="http://www.w3.org/1999/xlink">
    <title>bounds</title>
    <g id="Page-1" stroke="none" stroke-width="1" fill="none" fill-rule="evenodd">
        <g id="enterprise-profile--v-light" transform="translate(-16.000000, -256.000000)">
            <g id="about" transform="translate(0.000000, 236.000000)">
                <g id="icon" transform="translate(16.000000, 20.000000)">
                    <rect id="bounds" x="0" y="0" width="24" height="24"></rect>
                    <path d="M19.5,10.75 L13.25,10.75 L13.25,9.5 L19.5,9.5 L19.5,10.75 Z M17,14.5 L13.25,14.5 L13.25,13.25 L17,13.25 L17,14.5 Z M22,4.5 L22,19.5 L2,19.5 L2,4.5 L22,4.5 Z M20.75,5.75 L3.25,5.75 L3.25,18.25 L20.75,18.25 L20.75,5.75 Z M8.25,13.25 C7.90494792,13.25 7.58105469,13.3151042 7.27832031,13.4453125 C6.97558594,13.5755208 6.71028646,13.7545573 6.48242188,13.9824219 C6.25455729,14.2102865 6.07552083,14.4755859 5.9453125,14.7783203 C5.81510417,15.0810547 5.75,15.4049479 5.75,15.75 L4.5,15.75 C4.5,15.4114583 4.54557292,15.0810547 4.63671875,14.7587891 C4.72786458,14.4365234 4.85644531,14.1337891 5.02246094,13.8505859 C5.18847656,13.5673828 5.39029948,13.3085937 5.62792969,13.0742187 C5.8655599,12.8398437 6.13411458,12.6380208 6.43359375,12.46875 C6.21875,12.2408854 6.05110677,11.9772135 5.93066406,11.6777344 C5.81022135,11.3782552 5.75,11.0690104 5.75,10.75 C5.75,10.4049479 5.81510417,10.0810547 5.9453125,9.77832031 C6.07552083,9.47558594 6.25455729,9.21028646 6.48242188,8.98242187 C6.71028646,8.75455729 6.97558594,8.57552083 7.27832031,8.4453125 C7.58105469,8.31510417 7.90494792,8.25 8.25,8.25 C8.59505208,8.25 8.91894531,8.31510417 9.22167969,8.4453125 C9.52441406,8.57552083 9.78971354,8.75455729 10.0175781,8.98242187 C10.2454427,9.21028646 10.4244792,9.47558594 10.5546875,9.77832031 C10.6848958,10.0810547 10.75,10.4049479 10.75,10.75 C10.75,11.0690104 10.6897786,11.3782552 10.5693359,11.6777344 C10.4488932,11.9772135 10.28125,12.2408854 10.0664062,12.46875 C10.3658854,12.6380208 10.6344401,12.8398437 10.8720703,13.0742187 C11.1097005,13.3085937 11.3115234,13.5673828 11.4775391,13.8505859 C11.6435547,14.1337891 11.7721354,14.4365234 11.8632812,14.7587891 C11.9544271,15.0810547 12,15.4114583 12,15.75 L10.75,15.75 C10.75,15.4049479 10.6848958,15.0810547 10.5546875,14.7783203 C10.4244792,14.4755859 10.2454427,14.2102865 10.0175781,13.9824219 C9.78971354,13.7545573 9.52441406,13.5755208 9.22167969,13.4453125 C8.91894531,13.3151042 8.59505208,13.25 8.25,13.25 Z M7,10.75 C7,10.9257812 7.03255208,11.0885417 7.09765625,11.2382812 C7.16276042,11.3880208 7.25227865,11.5198568 7.36621094,11.6337891 C7.48014323,11.7477214 7.61197917,11.8372396 7.76171875,11.9023437 C7.91145833,11.9674479 8.07421875,12 8.25,12 C8.42578125,12 8.58854167,11.9674479 8.73828125,11.9023437 C8.88802083,11.8372396 9.01985677,11.7477214 9.13378906,11.6337891 C9.24772135,11.5198568 9.33723958,11.3880208 9.40234375,11.2382812 C9.46744792,11.0885417 9.5,10.9257812 9.5,10.75 C9.5,10.5742187 9.46744792,10.4114583 9.40234375,10.2617187 C9.33723958,10.1119792 9.24772135,9.98014323 9.13378906,9.86621094 C9.01985677,9.75227865 8.88802083,9.66276042 8.73828125,9.59765625 C8.58854167,9.53255208 8.42578125,9.5 8.25,9.5 C8.07421875,9.5 7.91145833,9.53255208 7.76171875,9.59765625 C7.61197917,9.66276042 7.48014323,9.75227865 7.36621094,9.86621094 C7.25227865,9.98014323 7.16276042,10.1119792 7.09765625,10.2617187 C7.03255208,10.4114583 7,10.5742187 7,10.75 Z" id="shape" fill="#000000" fill-rule="nonzero"></path>
                </g>
            </g>
        </g>
    </g>
</svg>